<svg xmlns="http://www.w3.org/2000/svg" id="Layer_2" data-name="Layer 2" viewBox="0 0 643.19 643.19"><defs><style>.cls-2{fill:#fff}.cls-3{fill:#ffb3f4}</style></defs><path d="m420.43 221.56-76.06-54.99a31.836 31.836 0 0 0-37.37 0l-76.06 54.99-5.27-7.29 76.06-54.99a40.812 40.812 0 0 1 47.91 0l76.06 54.99-5.27 7.29Z" class="cls-3"/><path d="M129.36 211.61h384.46v280.07H129.36z" style="fill:#001dc6"/><path d="M147.48 223.83H495.7v255.65H147.48z" style="fill:#046bff"/><path d="m147.48 479.47 80.21-136.98L298 479.47H147.48z" class="cls-3"/><path d="M474.58 278.77c-1.55 0-3 .36-4.25 1-2.88-5.97-9.65-10.17-17.56-10.17-3.69 0-7.12.93-10.04 2.51-1.52-8.88-10.29-15.7-20.92-15.7-11.7 0-21.18 8.25-21.18 18.43 0 .12.02.25.02.38-3.11-1.9-6.89-3.02-10.98-3.02-10.58 0-19.17 7.47-19.17 16.68s8.58 16.68 19.17 16.68c4.36 0 8.36-1.28 11.58-3.41 2.75 8.22 11.47 14.23 21.81 14.23s19.63-6.41 22.06-15.05c2.34.9 4.92 1.4 7.64 1.4 7.91 0 14.68-4.2 17.56-10.17 1.25.63 2.7 1 4.25 1 4.69 0 8.5-3.31 8.5-7.39s-3.8-7.39-8.5-7.39v-.02Zm-211.12 33.32c-1.55 0-3 .36-4.25 1-2.88-5.97-9.65-10.17-17.56-10.17-3.69 0-7.12.93-10.04 2.51-1.52-8.88-10.29-15.7-20.92-15.7-11.7 0-21.18 8.25-21.18 18.43 0 .12.02.25.02.38-3.11-1.9-6.89-3.02-10.98-3.02-10.58 0-19.17 7.47-19.17 16.68s8.58 16.68 19.17 16.68c4.36 0 8.36-1.28 11.58-3.41 2.75 8.22 11.47 14.23 21.81 14.23s19.63-6.41 22.06-15.05c2.34.9 4.92 1.4 7.64 1.4 7.91 0 14.68-4.2 17.56-10.17 1.25.63 2.7 1 4.25 1 4.69 0 8.5-3.31 8.5-7.39s-3.8-7.39-8.5-7.39v-.02Z" class="cls-2"/><path d="m215.67 479.47 110.51-188.74 96.88 188.74H215.67z" class="cls-3"/><path d="m461.49 351.51-74.93 127.96h109.15v-61.3l-34.22-66.66z" class="cls-3"/><path d="M147.48 286.39c44.63 0 80.81-28.01 80.81-62.56h-80.81v62.56Z" class="cls-2"/></svg>