<svg xmlns="http://www.w3.org/2000/svg" id="Layer_2" data-name="Layer 2" viewBox="0 0 643.19 643.19"><defs><style>.cls-1{fill:#001dc6}.cls-3{fill:#046bff}</style></defs><path d="M155.83 212.18 97.39 521.55h288.56l15.15-203.77-115.58-112.1-129.69 6.5z" style="fill:#ffb3f4"/><path d="m326.76 178.82 19.73-43.39c1.24-2.72.03-5.93-2.69-7.16l-13.51-6.14a5.402 5.402 0 0 0-7.16 2.69l-19.23 42.31 22.87 11.71Z" class="cls-1"/><path d="m486.25 231.81-155.46-64 1.81-11.49 157.96 65.03a5.408 5.408 0 0 1 2.94 7.06l-.19.46a5.408 5.408 0 0 1-7.06 2.94Z" class="cls-1"/><path d="M446.59 215.48v269.73h11.31V220.07l-11.31-4.59z" class="cls-1"/><path d="M457.9 485.21h-11.31l-37.19 26.11a5.407 5.407 0 0 0-1.32 7.54l.28.4c1.72 2.44 5.09 3.04 7.53 1.32l36.35-25.51 36.35 25.51a5.394 5.394 0 0 0 7.53-1.32l.28-.4a5.407 5.407 0 0 0-1.32-7.54l-37.19-26.11ZM308.71 166.9l-77.56 3.49c-1.06.05-2.08.41-2.94 1.03l-58.38 42.55c-3.08 2.25-2.93 6.89.28 8.94l57.23 36.4 89.03 36.4 65.61 12.66c3.67.71 6.94-2.44 6.37-6.13l-10.5-68.33a5.454 5.454 0 0 0-1.43-2.91l-56.87-59.73a14.084 14.084 0 0 0-10.84-4.36Z" class="cls-1"/><path d="m385.95 307.59-62.77-39.12-81.97-33.04-73.44-15.84c.3 1.31 1.09 2.52 2.36 3.32l57.23 36.4 89.03 36.4 46.87 9.04 18.75 3.62c1.46.28 2.84-.05 3.96-.78Z" class="cls-3"/><path d="M155.83 212.18c30.19-51.02 101.8-67 162.89-40.7 61.09 26.3 98.69 89.3 82.38 146.3l-245.27-105.6Z" class="cls-1"/><ellipse cx="278.46" cy="264.98" class="cls-3" rx="30.6" ry="133.52" transform="rotate(-66.71 278.443 264.972)"/></svg>