<svg xmlns="http://www.w3.org/2000/svg" id="Layer_2" data-name="Layer 2" viewBox="0 0 643.19 643.19"><defs><style>.cls-3{fill:#001dc6}.cls-5{fill:#ffb3f4}.cls-6{fill:#046bff}</style></defs><rect width="239.58" height="144.98" x="238.94" y="152.54" class="cls-3" rx="6" ry="6"/><path d="M400.72 152.54h-83.99l11.62-27.29a6.008 6.008 0 0 1 5.52-3.65h49.7c2.41 0 4.58 1.44 5.52 3.65l11.62 27.29Z" class="cls-6"/><path d="M267.04 133.97h18.06c3.31 0 6 2.69 6 6v12.57h-30.06v-12.57c0-3.31 2.69-6 6-6Z" class="cls-5"/><path d="M244.94 152.54h31.13v144.98h-31.13c-3.31 0-6-2.69-6-6V158.54c0-3.31 2.69-6 6-6Zm196.44 0h31.13c3.31 0 6 2.69 6 6v132.98c0 3.31-2.69 6-6 6h-31.13V152.54ZM316.73 297.52h83.99v35.55c0 3.31-2.69 6-6 6h-71.99c-3.31 0-6-2.69-6-6v-35.55Z" class="cls-6"/><path d="M202.5 170.22h36.43v25.64H202.5c-3.31 0-6-2.69-6-6v-13.64c0-3.31 2.69-6 6-6Z" class="cls-3"/><path d="M316.73 324.8h-82.44c-12.72 0-23.07-10.35-23.07-23.07V195.86h13v105.87c0 5.55 4.52 10.07 10.07 10.07h82.44v13Z" class="cls-5"/><path d="M253.96 381.82h-72.72c-12.72 0-23.07-10.35-23.07-23.07V199.61c0-12.72 10.35-23.07 23.07-23.07h15.25v13h-15.25c-5.55 0-10.07 4.52-10.07 10.07v159.14c0 5.55 4.52 10.07 10.07 10.07h72.72v13Z" class="cls-5"/><rect width="61.88" height="33.59" x="253.96" y="358.52" class="cls-3" rx="6" ry="6"/><path d="M267.23 392.12h35.36V515.6c0 3.31-2.69 6-6 6h-23.36c-3.31 0-6-2.69-6-6V392.12Z" class="cls-6"/><circle cx="358.72" cy="225.03" r="38.01" style="fill:#f2f3f4;stroke:#000;stroke-miterlimit:10;stroke-width:4px"/><circle cx="358.72" cy="225.03" r="54.81" style="fill:#fff"/><circle cx="358.72" cy="225.03" r="41.99" style="stroke-miterlimit:10;stroke-width:4px;fill:none;stroke:#001dc6"/></svg>