<svg xmlns="http://www.w3.org/2000/svg" id="Layer_2" data-name="Layer 2" viewBox="0 0 643.19 643.19"><defs><style>.cls-4{fill:#046bff}</style></defs><rect width="162.74" height="26.66" x="240.23" y="386.61" class="cls-4" rx="12.74" ry="12.74"/><rect width="162.74" height="26.66" x="240.23" y="424.54" class="cls-4" rx="12.74" ry="12.74"/><rect width="162.74" height="26.66" x="240.23" y="462.47" class="cls-4" rx="12.74" ry="12.74"/><path d="M449.34 249.34c0-72.22-59.93-130.44-132.77-127.65-67.34 2.58-121.48 57.88-122.71 125.25-.78 42.57 19.27 80.5 50.64 104.27 8.94 6.78 14.25 17.3 14.25 28.52v6.88h125.68v-6.87c0-11.07 5.07-21.61 13.92-28.27 30.97-23.31 50.99-60.37 50.99-102.12Z" style="fill:#ffb3f4"/><path d="M258.75 413.27h125.68v11.27H258.75zm0 37.93h125.68v11.27H258.75zm0 37.93h125.68l-9.8 20.41c-3.48 7.25-12.46 12.06-22.51 12.06h-61.07c-10.04 0-19.03-4.81-22.51-12.06l-9.8-20.41Z" style="fill:#001dc6"/><path d="M402.96 265.04c-8.67 0-15.69-7.03-15.69-15.69 0-31.07-22.05-58.13-52.42-64.34-8.49-1.74-13.97-10.03-12.23-18.52 1.74-8.49 10.03-13.97 18.52-12.23 44.92 9.19 77.52 49.18 77.52 95.09 0 8.67-7.03 15.69-15.69 15.69Z" style="fill:#fff"/></svg>