<svg xmlns="http://www.w3.org/2000/svg" id="Layer_2" data-name="Layer 2" viewBox="0 0 643.19 643.19"><defs><style>.cls-1{fill:#001dc6}.cls-3{fill:#046bff}</style></defs><path d="M237.58 347.21c0 31.76 4.09 61.54 11.24 87.19h-78.27c-14.84-25.65-23.33-55.43-23.33-87.19h90.36Z" class="cls-1"/><path d="M405.61 347.21c0 31.76-4.09 61.54-11.24 87.19h78.27c14.84-25.65 23.33-55.43 23.33-87.19h-90.36Z" class="cls-3"/><path d="M394.37 434.4c-14.53 52.12-41.68 87.19-72.77 87.19 64.54 0 120.89-35.07 151.05-87.19h-78.27Z" class="cls-1"/><path d="M248.82 434.4c14.53 52.12 41.68 87.19 72.77 87.19-64.54 0-120.89-35.07-151.05-87.19h78.27Zm145.55-174.38c-14.53-52.12-41.68-87.19-72.77-87.19 64.54 0 120.89 35.07 151.04 87.19m-235.06 87.19c0-31.76 4.09-61.54 11.24-87.19h-78.27c-14.84 25.65-23.33 55.43-23.33 87.19h90.36Z" class="cls-3"/><path d="M405.61 347.21c0-31.76-4.09-61.54-11.24-87.19h78.27c14.84 25.65 23.33 55.43 23.33 87.19h-90.36Zm-84.02-174.37c-64.54 0-120.89 35.07-151.05 87.19h78.27c14.53-52.12 41.68-87.19 72.77-87.19Z" class="cls-1"/><path d="M321.59 172.84c2.21 0 4.4.06 6.59.14v-38.22h-13.19v38.22c2.19-.08 4.39-.14 6.59-.14Z" class="cls-1"/><rect width="91.11" height="13.16" x="276.04" y="121.59" class="cls-1" rx="6" ry="6"/><path d="M405.61 347.21c0 31.76-4.09 61.54-11.24 87.19H321.6v-87.19h84.02Z" class="cls-1"/><path d="M394.37 434.4c-14.53 52.12-41.68 87.19-72.77 87.19V434.4h72.77Z" class="cls-3"/><path d="M394.37 260.02c-14.53-52.12-41.68-87.19-72.77-87.19v87.19h72.77Z" class="cls-1"/><path d="M405.61 347.21c0-31.76-4.09-61.54-11.24-87.19H321.6v87.19h84.02Zm-84.02 0v87.19h-72.77c-7.15-25.65-11.24-55.43-11.24-87.19h84.02Z" class="cls-3"/><path d="M321.59 434.4v87.19c-31.1 0-58.25-35.07-72.77-87.19h72.77Zm0-87.19v-87.19h-72.77c-7.15 25.65-11.24 55.43-11.24 87.19h84.02Z" class="cls-1"/><path d="M321.59 260.02v-87.19c-31.1 0-58.25 35.07-72.77 87.19h72.77Z" class="cls-3"/><path d="m401.02 156.13 15.17 41 41 15.17c6.18 2.29 6.18 11.02 0 13.31l-41 15.17-15.17 41c-2.29 6.18-11.02 6.18-13.31 0l-15.17-41-41-15.17c-6.18-2.29-6.18-11.02 0-13.31l41-15.17 15.17-41c2.29-6.18 11.02-6.18 13.31 0Zm54.9 101.57 9.57 25.85 25.85 9.57c6.18 2.29 6.18 11.02 0 13.31L465.49 316l-9.57 25.85c-2.29 6.18-11.02 6.18-13.31 0L433.04 316l-25.85-9.57c-6.18-2.29-6.18-11.02 0-13.31l25.85-9.57 9.57-25.85c2.29-6.18 11.02-6.18 13.31 0Z" style="fill:#ffb3f4"/></svg>