<svg xmlns="http://www.w3.org/2000/svg" id="Layer_2" data-name="Layer 2" viewBox="0 0 643.19 643.19"><defs><style>.cls-3{fill:#001dc6}.cls-4{fill:#ffb3f4}.cls-5{fill:#046bff}</style></defs><path d="M601 203.89c0 1.4.49 2.77 1.43 4.11l-1.43-4.11Z" style="fill:none"/><ellipse cx="355" cy="295.96" class="cls-4" rx="27.85" ry="115.55" transform="rotate(-45 355.002 295.963)"/><path d="M292.15 358.82c-25.12-25.12-44.59-50.58-54.87-70.28l-19.13 39.45-11.62 23.97c10.76 15.54 25.29 32.86 42.45 50.03 17.16 17.16 34.49 31.69 50.03 42.45l23.97-11.62 39.45-19.13c-19.7-10.28-45.16-29.75-70.28-54.87Z" class="cls-3"/><path d="M248.98 401.98c-17.16-17.16-31.69-34.49-42.45-50.03l-16.57 34.17-13.08 26.98c8.42 10.42 18.16 21.26 28.93 32.04s21.62 20.51 32.04 28.93l26.98-13.08L299 444.42c-15.54-10.76-32.86-25.29-50.03-42.45Z" class="cls-5"/><path d="M205.82 445.14c-10.78-10.78-20.51-21.62-28.93-32.04l-15.11 31.16-13.85 28.57c4.65 5.14 9.57 10.31 14.73 15.47s10.34 10.08 15.47 14.73l28.57-13.85 31.16-15.11c-10.42-8.42-21.26-18.16-32.04-28.93Z" class="cls-3"/><path d="M162.66 488.31a436.222 436.222 0 0 1-14.73-15.47l-14.34 29.57-3.33 6.87c-3.54 7.31 4.13 14.98 11.43 11.43l6.87-3.33 29.57-14.34c-5.14-4.65-10.31-9.57-15.47-14.73Zm199.76-74.62 69.86-33.87c-15.81 2.81-56.5-23.69-96.97-64.16s-66.97-81.16-64.16-96.97l-33.87 69.86c10.28 19.7 29.75 45.16 54.87 70.28 25.12 25.12 50.58 44.59 70.28 54.87Z" class="cls-5"/><path d="m306.76 255.07 28.02-110.49m5.86 133.19 84.84-99.8m-49.29 131.81 112.18-64.02m-91.13 94.83 116.59-18.37" style="stroke:#001dc6;stroke-linecap:round;stroke-linejoin:round;stroke-width:16px;fill:none"/><circle cx="437.11" cy="459.1" r="35.21" class="cls-4"/><path d="m213.12 126.18 15.01 40.56 40.56 15.01c6.11 2.27 6.11 10.9 0 13.17l-40.56 15.01-15.01 40.56c-2.27 6.11-10.9 6.11-13.17 0l-15.01-40.56-40.56-15.01c-6.11-2.27-6.11-10.9 0-13.17l40.56-15.01 15.01-40.56c2.27-6.11 10.9-6.11 13.17 0Zm137.81 318.81 8.2 22.16 22.16 8.2c5.3 1.96 5.3 9.45 0 11.41l-22.16 8.2-8.2 22.16c-1.96 5.3-9.45 5.3-11.41 0l-8.2-22.16-22.16-8.2c-5.3-1.96-5.3-9.45 0-11.41l22.16-8.2 8.2-22.16c1.96-5.3 9.45-5.3 11.41 0Z" class="cls-4"/></svg>