<svg xmlns="http://www.w3.org/2000/svg" id="Layer_2" data-name="Layer 2" viewBox="0 0 643.19 643.19"><defs><style>.cls-1{fill:#001dc6}.cls-2{fill:#fff}.cls-3{fill:#ffb3f4}.cls-4{fill:#046bff}</style></defs><path d="M206.46 297.46h169.67c3.31 0 6 2.69 6 6v20.84H200.46v-20.84c0-3.31 2.69-6 6-6Z" class="cls-1"/><rect width="232.18" height="141.22" x="175.2" y="324.3" class="cls-4" rx="6" ry="6"/><path d="M153.93 373.93h21.27v41.97h-21.27z" class="cls-1"/><rect width="32.33" height="74.67" x="121.59" y="357.57" class="cls-4" rx="6" ry="6" transform="rotate(180 137.76 394.91)"/><path d="M439.71 422.99h-32.33v-56.17h32.33z" class="cls-1"/><path d="m439.71 423 44.21 33.98V332.85l-44.21 33.98V423z" class="cls-4"/><path d="M483.92 332.85h31.68c3.31 0 6 2.69 6 6v112.13c0 3.31-2.69 6-6 6h-31.68V332.85Zm-264.7 132.67h144.15v24.3c0 3.31-2.69 6-6 6H225.22c-3.31 0-6-2.69-6-6v-24.3Z" class="cls-1"/><rect width="90.83" height="59.3" x="200.46" y="350.06" class="cls-2" rx="5" ry="5"/><rect width="26.94" height="44.85" x="359.42" y="394.91" class="cls-3" rx="6" ry="6"/><circle cx="223.51" cy="249.15" r="48.31" class="cls-3"/><circle cx="223.51" cy="249.15" r="19.43" class="cls-4"/><path d="M413.94 195.66c-14.78-38.71-58.14-58.11-96.85-43.34-38.71 14.78-58.12 58.14-43.34 96.85 14.78 38.71 58.14 58.11 96.85 43.34 38.71-14.78 58.12-58.14 43.34-96.85Zm-117.79 46.18c-10.73 0-19.43-8.7-19.43-19.43s8.7-19.43 19.43-19.43 19.43 8.7 19.43 19.43-8.7 19.43-19.43 19.43Zm47.7 47.71c-10.73 0-19.43-8.7-19.43-19.43s8.7-19.43 19.43-19.43 19.43 8.7 19.43 19.43-8.7 19.43-19.43 19.43Zm0-95.41c-10.73 0-19.43-8.7-19.43-19.43s8.7-19.43 19.43-19.43 19.43 8.7 19.43 19.43-8.7 19.43-19.43 19.43Zm47.7 47.7c-10.73 0-19.43-8.7-19.43-19.43s8.7-19.43 19.43-19.43 19.43 8.7 19.43 19.43-8.7 19.43-19.43 19.43Z" class="cls-3"/><circle cx="343.85" cy="222.42" r="19.43" class="cls-4"/><path d="M372.89 350.06c1.58 0 2.87 1.29 2.87 2.87v41.98h-5.74v-41.98c0-1.58 1.29-2.87 2.87-2.87Z" class="cls-2"/><rect width="5.74" height="89.7" x="330.79" y="350.06" class="cls-2" rx="2.87" ry="2.87"/><rect width="5.74" height="89.7" x="243" y="392.04" class="cls-2" rx="2.87" ry="2.87" transform="rotate(-90 245.87 436.89)"/></svg>