<svg xmlns="http://www.w3.org/2000/svg" id="Layer_2" data-name="Layer 2" viewBox="0 0 643.19 643.19"><defs><style>.cls-1{fill:#001dc6}.cls-2{fill:#ffb3f4}.cls-3{fill:#046bff}</style></defs><path d="M318.1 471.89c-50.33-1.85-89.81-44-89.81-94.36v-71.06c0-3.31 2.69-6 6-6h12.41c3.31 0 6 2.69 6 6v71.2c0 36.91 28.66 68.02 65.54 69.79 39.51 1.89 72.26-29.71 72.26-68.82v-72.17c0-3.31 2.69-6 6-6h12.41c3.31 0 6 2.69 6 6v72.17c0 52.61-43.77 95.2-96.81 93.25Z" class="cls-1"/><rect width="151.41" height="24.41" x="245.89" y="497.18" class="cls-3" rx="6" ry="6"/><rect width="134.76" height="22.76" x="254.21" y="260.69" class="cls-2" rx="6" ry="6"/><path d="M377.89 260.69v-82.8c0-31.09-25.2-56.3-56.3-56.3-31.09 0-56.3 25.2-56.3 56.3v82.8h112.59Z" class="cls-1"/><path d="M265.3 283.45v65.85c0 31.09 25.2 56.3 56.3 56.3 31.09 0 56.3-25.2 56.3-56.3v-65.85H265.31Z" class="cls-3"/><path d="M377.89 324.35h12.6v24.41h-12.6zm56.98 0h-19.96v24.41h19.96c3.31 0 6-2.69 6-6v-12.41c0-3.31-2.69-6-6-6Zm-206.59 0h-19.96c-3.31 0-6 2.69-6 6v12.41c0 3.31 2.69 6 6 6h19.96v-24.41Zm24.42 0h12.6v24.41h-12.6z" class="cls-2"/><path d="M333.8 497.18v-26.02c-4.87.64-9.85.9-14.92.76-3.21-.09-6.38-.35-9.49-.76v26.02h24.41Z" class="cls-3"/></svg>